<svg id="svg" version="1.1" xmlns="http://www.w3.org/2000/svg" xmlns:xlink="http://www.w3.org/1999/xlink" width="400" height="400" viewBox="0, 0, 400,400"><g id="svgg"><path id="path0" d="M41.587 135.254 C 41.485 135.522,41.446 164.395,41.501 199.414 L 41.602 263.086 58.105 263.188 L 74.609 263.290 74.609 199.028 L 74.609 134.766 58.191 134.766 C 45.416 134.766,41.731 134.874,41.587 135.254 M85.938 199.028 L 85.938 263.291 100.488 263.188 L 115.039 263.086 115.234 222.375 L 115.430 181.664 121.302 222.375 L 127.174 263.086 137.291 263.190 C 142.856 263.248,147.545 263.158,147.711 262.992 C 147.878 262.825,150.526 243.905,153.597 220.946 L 159.180 179.203 159.375 221.145 L 159.570 263.086 174.023 263.086 L 188.477 263.086 188.477 199.023 L 188.477 134.961 166.804 134.961 L 145.132 134.961 141.431 163.962 C 139.395 179.913,137.615 192.833,137.475 192.673 C 137.335 192.514,135.775 182.188,134.009 169.727 C 131.098 149.188,129.695 139.587,129.088 136.035 L 128.871 134.766 107.404 134.766 L 85.938 134.766 85.938 199.028 M199.790 135.254 C 199.688 135.522,199.649 164.395,199.704 199.414 L 199.805 263.086 224.609 263.070 C 249.875 263.054,253.175 262.899,258.789 261.471 C 266.990 259.384,272.103 254.056,273.630 246.003 C 275.585 235.694,275.592 165.902,273.639 155.605 C 271.593 144.819,263.471 138.156,249.935 136.158 C 241.257 134.876,200.215 134.137,199.790 135.254 M286.118 135.254 C 286.016 135.522,285.977 164.395,286.033 199.414 L 286.133 263.086 300.863 263.188 C 317.504 263.304,315.882 263.633,316.761 259.961 C 317.019 258.887,317.391 257.389,317.590 256.632 L 317.951 255.256 320.752 257.911 C 333.871 270.347,356.444 265.228,359.971 249.017 C 361.331 242.769,361.789 188.629,360.536 182.227 C 357.490 166.653,333.676 162.047,320.020 174.391 L 317.969 176.244 317.969 155.505 L 317.969 134.766 302.136 134.766 C 289.830 134.766,286.262 134.874,286.118 135.254 M239.939 158.090 C 242.971 159.861,242.773 157.107,242.773 197.656 C 242.773 242.496,243.225 240.039,234.863 240.731 L 232.813 240.901 232.813 198.910 L 232.813 156.918 235.754 157.141 C 237.561 157.278,239.174 157.643,239.939 158.090 M326.171 187.012 C 328.808 188.330,328.711 187.215,328.711 216.211 C 328.711 246.948,328.984 245.295,323.790 245.992 C 320.196 246.474,318.878 244.796,318.297 238.999 C 317.738 233.420,318.081 190.889,318.700 188.976 C 319.550 186.352,323.024 185.439,326.171 187.012 " stroke="none" fill="#040404" fill-rule="evenodd"></path><path id="path1" d="M13.987 0.939 C 7.636 3.181,2.969 7.931,0.816 14.343 L 0.000 16.772 -0.000 200.000 L -0.000 383.228 0.811 385.657 C 2.970 392.129,8.138 397.300,14.368 399.225 C 16.858 399.993,18.425 400.000,200.139 399.992 L 383.398 399.984 386.115 399.025 C 392.564 396.750,397.344 391.617,399.370 384.792 C 400.457 381.131,400.323 18.314,399.233 14.787 C 397.212 8.247,392.371 3.184,385.982 0.928 L 383.398 0.016 200.000 0.016 L 16.602 0.016 13.987 0.939 M74.609 199.028 L 74.609 263.290 58.105 263.188 L 41.602 263.086 41.501 199.414 C 41.446 164.395,41.485 135.522,41.587 135.254 C 41.731 134.874,45.416 134.766,58.191 134.766 L 74.609 134.766 74.609 199.028 M129.088 136.035 C 129.695 139.587,131.098 149.188,134.009 169.727 C 135.775 182.188,137.335 192.514,137.475 192.673 C 137.615 192.833,139.395 179.913,141.431 163.962 L 145.132 134.961 166.804 134.961 L 188.477 134.961 188.477 199.023 L 188.477 263.086 174.023 263.086 L 159.570 263.086 159.375 221.145 L 159.180 179.203 153.597 220.946 C 150.526 243.905,147.878 262.825,147.711 262.992 C 147.545 263.158,142.856 263.248,137.291 263.190 L 127.174 263.086 121.302 222.375 L 115.430 181.664 115.234 222.375 L 115.039 263.086 100.488 263.188 L 85.938 263.291 85.938 199.028 L 85.938 134.766 107.404 134.766 L 128.871 134.766 129.088 136.035 M236.654 135.162 C 254.941 135.925,262.129 138.055,268.044 144.463 C 274.520 151.477,274.984 155.323,274.986 201.953 C 274.989 246.282,274.415 250.860,268.140 256.594 C 261.749 262.436,257.630 263.049,224.609 263.070 L 199.805 263.086 199.704 199.414 C 199.649 164.395,199.688 135.522,199.790 135.254 C 200.022 134.644,222.866 134.587,236.654 135.162 M317.969 155.505 L 317.969 176.244 320.020 174.391 C 325.279 169.636,329.580 167.970,337.357 167.674 C 350.166 167.187,358.634 172.503,360.536 182.227 C 361.789 188.629,361.331 242.769,359.971 249.017 C 356.444 265.228,333.871 270.347,320.752 257.911 L 317.951 255.256 317.590 256.632 C 317.391 257.389,317.019 258.887,316.761 259.961 C 315.882 263.633,317.504 263.304,300.863 263.188 L 286.133 263.086 286.033 199.414 C 285.977 164.395,286.016 135.522,286.118 135.254 C 286.262 134.874,289.830 134.766,302.136 134.766 L 317.969 134.766 317.969 155.505 M232.813 198.910 L 232.813 240.901 234.863 240.731 C 239.460 240.350,241.421 239.041,242.257 235.793 C 243.248 231.946,242.990 161.892,241.978 160.170 C 240.823 158.204,239.169 157.399,235.754 157.141 L 232.813 156.918 232.813 198.910 M320.024 186.926 C 318.325 188.116,318.238 189.259,318.069 212.772 C 317.863 241.366,318.148 244.483,321.083 245.699 C 323.428 246.670,327.115 245.545,328.121 243.551 C 329.006 241.798,329.009 190.634,328.125 188.867 C 327.001 186.622,322.125 185.454,320.024 186.926 " stroke="none" fill="#e4bc1c" fill-rule="evenodd"></path></g></svg>