
<svg version="1.0" xmlns="http://www.w3.org/2000/svg" width="50pt" height="50pt" viewBox="0 0 50 50" preserveAspectRatio="xMidYMid meet">
  <g transform="translate(0,50) scale(0.1,-0.1)" fill="#FFFFFF" stroke="none">
    <path d="M268 413 c-14 -9 -35 -34 -46 -55 -19 -35 -20 -38 -4 -48 9 -5 13 -9 7 -9 -5 0 -21 6 -35 14 -35 20 -63 18 -94 -6 -30 -24 -38 -89 -10 -89 8 0 38 -7 65 -16 36 -12 72 -15 127 -12 42 3 68 2 57 -3 -33 -13 -147 -9 -190 6 -55 20 -99 19 -118 -3 -23 -26 -22 -87 3 -112 69 -69 371 -69 440 0 27 27 27 91 0 115 -15 14 -30 16 -66 12 -29 -3 -41 -1 -33 4 8 5 24 9 37 9 12 0 22 5 22 10 0 13 -31 25 -103 40 -32 6 -56 14 -54 17 3 2 22 0 44 -6 21 -6 48 -11 61 -11 36 0 29 48 -13 93 -19 20 -35 44 -35 52 0 20 -28 19 -62 -2z"/>
  </g>
</svg>

